<svg xmlns="http://www.w3.org/2000/svg" width="1600" height="900" viewBox="0 0 1600 900">
  <defs>
    <linearGradient id="bg" x1="0" y1="0" x2="1" y2="1">
      <stop offset="0" stop-color="#1d2b42"/>
      <stop offset="0.55" stop-color="#0b1017"/>
      <stop offset="1" stop-color="#151b28"/>
    </linearGradient>
    <radialGradient id="glow" cx="25%" cy="20%" r="70%">
      <stop offset="0" stop-color="#ffd363" stop-opacity="0.22"/>
      <stop offset="1" stop-color="#ffd363" stop-opacity="0"/>
    </radialGradient>
  </defs>

  <rect width="1600" height="900" fill="url(#bg)"/>
  <rect width="1600" height="900" fill="url(#glow)"/>

  <g opacity="0.45" stroke="#ffffff" stroke-opacity="0.16">
    <path d="M0 680 C 260 590, 480 780, 760 700 C 1060 615, 1280 735, 1600 640" fill="none" stroke-width="2"/>
    <path d="M0 760 C 260 670, 520 860, 820 770 C 1120 680, 1340 815, 1600 720" fill="none" stroke-width="2"/>
    <path d="M0 840 C 280 760, 560 900, 860 850 C 1160 795, 1360 885, 1600 820" fill="none" stroke-width="2"/>
  </g>

  <g font-family="Segoe UI, Roboto, Arial, sans-serif" fill="#ffffff">
    <text x="80" y="140" font-size="34" font-weight="700" fill="#ffd363">Liqi Phim</text>
    <text x="80" y="220" font-size="64" font-weight="800">Còn Ra Th¿ ThÑng Gì Nïa</text>
    <text x="80" y="270" font-size="22" opacity="0.78">¢nh placeholder (thay b±ng £nh th­t trong th° måc img/)</text>
  </g>
</svg>

